<?xml version="1.0" ?><!DOCTYPE svg  PUBLIC '-//W3C//DTD SVG 1.1//EN'  'http://www.w3.org/Graphics/SVG/1.1/DTD/svg11.dtd'><svg enable-background="new 0 0 512 512" height="512px" id="Layer_1" version="1.1" viewBox="0 0 512 512" width="512px" xml:space="preserve" xmlns="http://www.w3.org/2000/svg" xmlns:xlink="http://www.w3.org/1999/xlink"><g><path d="M487.328,171.945L253.859,65.281c-3.742-1.703-7.977-1.703-11.719,0L8.672,171.945   C3.406,174.367,0,179.805,0,185.805v24.789C0,217.984,5.75,224,12.836,224H32v226.672C32,466.875,44.719,480,60.414,480H80V288h336   v192h18.617C450.844,480,464,466.422,464,449.672V224h19.164c7.086,0,12.836-6.016,12.836-13.406v-24.789   C496,179.805,492.594,174.367,487.328,171.945z M160,220.492c0,1.938-1.531,3.516-3.422,3.516H83.422   c-1.891,0-3.422-1.578-3.422-3.516v-24.977c0-1.938,1.531-3.516,3.422-3.516h73.156c1.891,0,3.422,1.578,3.422,3.516V220.492z    M288,220.492c0,1.938-1.531,3.516-3.406,3.516h-73.172c-1.891,0-3.422-1.578-3.422-3.516v-24.977c0-1.938,1.531-3.516,3.422-3.516   h73.172c1.875,0,3.406,1.578,3.406,3.516V220.492z M416,220.484c0,1.938-1.531,3.516-3.406,3.516h-73.188   c-1.875,0-3.406-1.578-3.406-3.516v-24.977c0-1.938,1.531-3.516,3.406-3.516h73.188c1.875,0,3.406,1.578,3.406,3.516V220.484z    M240,312v64c0,4.422-3.578,8-8,8h-64c-4.422,0-8-3.578-8-8v-64c0-4.422,3.578-8,8-8h24v16h16v-16h24   C236.422,304,240,307.578,240,312z M336,312v64c0,4.422-3.578,8-8,8h-64c-4.422,0-8-3.578-8-8v-64c0-4.422,3.578-8,8-8h24v16h16   v-16h24C332.422,304,336,307.578,336,312z M192,408v64c0,4.422-3.578,8-8,8h-64c-4.422,0-8-3.578-8-8v-64c0-4.422,3.578-8,8-8h24   v16h16v-16h24C188.422,400,192,403.578,192,408z M288,408v64c0,4.422-3.578,8-8,8h-64c-4.422,0-8-3.578-8-8v-64   c0-4.422,3.578-8,8-8h24v16h16v-16h24C284.422,400,288,403.578,288,408z M384,408v64c0,4.422-3.578,8-8,8h-64c-4.422,0-8-3.578-8-8   v-64c0-4.422,3.578-8,8-8h24v16h16v-16h24C380.422,400,384,403.578,384,408z" fill="#4D4D4D"/></g></svg>